# File created by Blade
# Date/Time:  Tue Jan 27 18:09:10 2015
# Frame Rate: 120.000 fps
#------------------------------------------------------
:FULLY-SPECIFIED
:DEGREES
3850
root -1.761247 31.883151 -6.465191 4.078497 -5.974765 1.562794
Spine -4.852645 -25.753129 -2.384556
Head 29.393938 28.903147 13.195527
LeftShoulder -17.910809 19.309061 3.639530
LeftArm 23.525001 37.940276 -72.897084
LeftForeArm -0.130279 -0.000000 17.164709
LeftHand -12.042220 -0.000000 -1.365347
LeftHandThumb1 -26.253704 0.000000 33.147579
RightShoulder -21.757147 -5.571251 -31.458293
RightArm -31.500863 74.415889 21.737639
RightForeArm 35.403043 -0.000000 103.050663
RightHand -11.443838 -0.000000 -9.996265
RightHandThumb1 -24.326973 -0.000000 -32.862282
LeftUpLeg 1.898708 8.443789 0.263779
LeftLeg 0.774566 -0.000000 -0.000000
LeftFoot -20.629018 19.388555 -26.608378
LeftToeBase 8.761026 -0.000000 -0.000000
RightUpLeg 0.255951 4.545763 -2.536482
RightLeg -1.875290 -0.000000 0.000000
RightFoot -13.556140 -9.478642 8.827731
RightToeBase 4.658658 -0.000000 -0.000000
3851
root -1.762567 31.884132 -6.482605 4.088873 -5.928918 1.557895
Spine -4.785035 -25.752113 -2.405969
Head 29.416532 28.884860 13.198779
LeftShoulder -17.940752 19.313039 3.604105
LeftArm 23.545036 37.982010 -72.857805
LeftForeArm -0.129339 -0.000000 17.210167
LeftHand -12.023397 -0.000000 -1.397767
LeftHandThumb1 -26.253704 0.000000 33.147579
RightShoulder -21.767176 -5.577355 -31.464504
RightArm -31.388773 74.406115 21.871189
RightForeArm 35.397096 -0.000000 103.038859
RightHand -11.442074 0.000000 -9.731629
RightHandThumb1 -24.326973 -0.000000 -32.862282
LeftUpLeg 1.833321 8.406502 0.275534
LeftLeg 0.812273 -0.000000 -0.000000
LeftFoot -20.601758 19.368670 -26.566671
LeftToeBase 8.752175 -0.000000 -0.000000
RightUpLeg 0.241066 4.570281 -2.527691
RightLeg -1.918768 -0.000000 0.000000
RightFoot -13.516570 -9.549734 8.846751
RightToeBase 4.671157 -0.000000 -0.000000
3852
root -1.757586 31.885127 -6.497968 4.095615 -5.906386 1.597611
Spine -4.738815 -25.725191 -2.463719
Head 29.476024 28.892382 13.207736
LeftShoulder -17.948378 19.342290 3.561429
LeftArm 23.556926 37.958275 -72.845443
LeftForeArm -0.162891 -0.000000 17.254367
LeftHand -12.126490 0.000000 -1.421432
LeftHandThumb1 -26.253704 0.000000 33.147579
RightShoulder -21.742816 -5.618738 -31.476982
RightArm -31.370629 74.426532 21.918911
RightForeArm 35.341995 0.000000 103.042340
RightHand -11.466615 0.000000 -9.595654
RightHandThumb1 -24.326973 -0.000000 -32.862282
LeftUpLeg 1.782981 8.363424 0.219475
LeftLeg 0.817689 -0.000000 -0.000000
LeftFoot -20.567609 19.452282 -26.497011
LeftToeBase 8.783794 -0.000000 -0.000000
RightUpLeg 0.125914 4.268302 -2.563072
RightLeg -1.752862 -0.000000 0.000000
RightFoot -13.568914 -9.330477 8.752531
RightToeBase 4.733217 -0.000000 -0.000000
3853
root -1.754591 31.886610 -6.510726 4.089877 -5.887552 1.624178
Spine -4.678893 -25.688588 -2.512878
Head 29.515749 28.889731 13.216888
LeftShoulder -17.964395 19.383335 3.514321
LeftArm 23.599610 37.959922 -72.809798
LeftForeArm -0.080477 -0.000000 17.257229
LeftHand -12.094579 -0.000000 -1.423582
LeftHandThumb1 -26.253704 0.000000 33.147579
RightShoulder -21.718555 -5.598848 -31.493529
RightArm -31.390747 74.365444 21.894874
RightForeArm 35.171740 -0.000000 103.061776
RightHand -11.545896 -0.000000 -9.697792
RightHandThumb1 -24.326973 -0.000000 -32.862282
LeftUpLeg 1.757357 8.349224 0.188816
LeftLeg 0.824716 -0.000000 -0.000000
LeftFoot -20.544624 19.445079 -26.515836
LeftToeBase 8.777901 -0.000000 -0.000000
RightUpLeg 0.091751 4.184886 -2.590210
RightLeg -1.719471 -0.000000 0.000000
RightFoot -13.568915 -9.271875 8.761082
RightToeBase 4.687563 -0.000000 -0.000000
3854
root -1.756280 31.887247 -6.528294 4.111584 -5.854995 1.626159
Spine -4.632418 -25.668319 -2.543787
Head 29.502883 28.852995 13.171954
LeftShoulder -17.969494 19.319400 3.532449
LeftArm 23.524498 38.024394 -72.840055
LeftForeArm -0.095847 -0.000000 17.240274
LeftHand -11.992487 -0.000000 -1.525144
LeftHandThumb1 -26.253704 0.000000 33.147579
RightShoulder -21.724664 -5.661153 -31.483703
RightArm -31.248028 74.414902 22.059531
RightForeArm 35.157089 -0.000000 103.044969
RightHand -11.432242 0.000000 -9.430777
RightHandThumb1 -24.326973 -0.000000 -32.862282
LeftUpLeg 1.684436 8.323511 0.182955
LeftLeg 0.852191 -0.000000 -0.000000
LeftFoot -20.526792 19.473941 -26.477027
LeftToeBase 8.752500 -0.000000 -0.000000
RightUpLeg 0.045729 4.183700 -2.587636
RightLeg -1.727572 -0.000000 0.000000
RightFoot -13.545317 -9.328788 8.728642
RightToeBase 4.712655 -0.000000 -0.000000
3855
root -1.758538 31.888267 -6.545510 4.142758 -5.820017 1.632358
Spine -4.602657 -25.641089 -2.576834
Head 29.535243 28.848668 13.217050
LeftShoulder -17.989612 19.355859 3.511361
LeftArm 23.571793 38.031094 -72.803825
LeftForeArm -0.208229 -0.000000 17.231111
LeftHand -11.957638 -0.000000 -1.440708
LeftHandThumb1 -26.253704 0.000000 33.147579
RightShoulder -21.723103 -5.662087 -31.492975
RightArm -31.255294 74.400520 22.070463
RightForeArm 35.053620 0.000000 103.045177
RightHand -11.433447 -0.000000 -9.245862
RightHandThumb1 -24.326973 -0.000000 -32.862282
LeftUpLeg 1.604673 8.314724 0.180886
LeftLeg 0.885926 -0.000000 -0.000000
LeftFoot -20.520667 19.414068 -26.515918
LeftToeBase 8.796950 -0.000000 -0.000000
RightUpLeg -0.009513 4.181158 -2.586876
RightLeg -1.732647 -0.000000 0.000000
RightFoot -13.524844 -9.355229 8.770633
RightToeBase 4.680010 -0.000000 -0.000000
3856
root -1.759195 31.889674 -6.561721 4.170942 -5.775781 1.637850
Spine -4.567815 -25.628014 -2.600997
Head 29.560405 28.869058 13.259180
LeftShoulder -18.035351 19.428843 3.452802
LeftArm 23.690056 38.013685 -72.717763
LeftForeArm -0.288850 -0.000000 17.230501
LeftHand -12.095591 -0.000000 -1.390063
LeftHandThumb1 -26.253704 0.000000 33.147579
RightShoulder -21.711893 -5.645305 -31.498751
RightArm -31.266776 74.373248 22.062332
RightForeArm 34.984779 -0.000000 103.035552
RightHand -11.392578 -0.000000 -9.187329
RightHandThumb1 -24.326973 -0.000000 -32.862282
LeftUpLeg 1.531212 8.276475 0.177930
LeftLeg 0.901090 -0.000000 -0.000000
LeftFoot -20.498518 19.401114 -26.507276
LeftToeBase 8.830899 -0.000000 -0.000000
RightUpLeg -0.059631 4.151342 -2.588933
RightLeg -1.735463 -0.000000 0.000000
RightFoot -13.511861 -9.388505 8.753555
RightToeBase 4.757943 -0.000000 -0.000000
3857
root -1.759210 31.890586 -6.578214 4.204103 -5.732862 1.654857
Spine -4.546296 -25.617165 -2.630627
Head 29.577471 28.864781 13.268220
LeftShoulder -18.045246 19.434790 3.451092
LeftArm 23.658595 37.972154 -72.758913
LeftForeArm -0.235820 -0.000000 17.216036
LeftHand -12.078521 -0.000000 -1.636906
LeftHandThumb1 -26.253704 0.000000 33.147579
RightShoulder -21.692736 -5.601571 -31.521604
RightArm -31.326233 74.304335 22.006651
RightForeArm 34.961536 0.000000 103.043891
RightHand -11.331740 -0.000000 -9.157382
RightHandThumb1 -24.326973 -0.000000 -32.862282
LeftUpLeg 1.455308 8.229055 0.153800
LeftLeg 0.904135 -0.000000 -0.000000
LeftFoot -20.441092 19.456844 -26.425571
LeftToeBase 8.731352 -0.000000 -0.000000
RightUpLeg -0.133421 4.082544 -2.599662
RightLeg -1.704092 -0.000000 0.000000
RightFoot -13.510546 -9.378641 8.750681
RightToeBase 4.713858 -0.000000 -0.000000
3858
root -1.765026 31.892137 -6.593211 4.228225 -5.690691 1.634660
Spine -4.513967 -25.606857 -2.636734
Head 29.610738 28.881988 13.312808
LeftShoulder -18.051734 19.429951 3.440596
LeftArm 23.612053 37.936290 -72.784843
LeftForeArm -0.295048 -0.000000 17.196800
LeftHand -12.041150 -0.000000 -1.677249
LeftHandThumb1 -26.253704 0.000000 33.147579
RightShoulder -21.673167 -5.592724 -31.524587
RightArm -31.349803 74.271159 21.986377
RightForeArm 34.898270 -0.000000 103.066839
RightHand -11.393542 -0.000000 -9.121505
RightHandThumb1 -24.326973 -0.000000 -32.862282
LeftUpLeg 1.393991 8.238508 0.189943
LeftLeg 0.926078 -0.000000 -0.000000
LeftFoot -20.421387 19.379448 -26.460365
LeftToeBase 8.813444 -0.000000 -0.000000
RightUpLeg -0.097209 4.336739 -2.581104
RightLeg -1.870346 -0.000000 0.000000
RightFoot -13.435723 -9.613600 8.883315
RightToeBase 4.794595 -0.000000 -0.000000
3859
root -1.763739 31.893146 -6.608497 4.264622 -5.642605 1.649603
Spine -4.504484 -25.609863 -2.647299
Head 29.608912 28.886046 13.275479
LeftShoulder -18.071943 19.423874 3.406317
LeftArm 23.556208 37.854026 -72.819873
LeftForeArm -0.239808 -0.000000 17.222564
LeftHand -12.135171 -0.000000 -1.652580
LeftHandThumb1 -26.253704 0.000000 33.147579
RightShoulder -21.655710 -5.551001 -31.563146
RightArm -31.328493 74.197364 22.012377
RightForeArm 34.863437 -0.000000 103.079250
RightHand -11.425740 -0.000000 -9.233648
RightHandThumb1 -24.326973 -0.000000 -32.862282
LeftUpLeg 1.322394 8.211352 0.168462
LeftLeg 0.925717 -0.000000 -0.000000
LeftFoot -20.381519 19.370511 -26.441799
LeftToeBase 8.792824 -0.000000 -0.000000
RightUpLeg -0.171656 4.245829 -2.593880
RightLeg -1.838768 -0.000000 0.000000
RightFoot -13.427413 -9.588971 8.858121
RightToeBase 4.693226 -0.000000 -0.000000
